<svg width="15" height="75" fill="none" xmlns="http://www.w3.org/2000/svg"><path d="M11.224 7.694v-5.04H8.236V7.55H5.86V2.654H1V.17h12.6v7.524h-2.376zm-9.108 9.37C1.204 16.14.748 15.012.748 13.68c0-1.332.456-2.46 1.368-3.384.924-.912 2.052-1.368 3.384-1.368 1.332 0 2.454.456 3.366 1.368.924.924 1.386 2.052 1.386 3.384 0 1.332-.462 2.46-1.386 3.384-.912.924-2.034 1.386-3.366 1.386-1.332 0-2.46-.462-3.384-1.386zm1.602-5.13c-.468.468-.702 1.05-.702 1.746s.234 1.278.702 1.746c.468.468 1.062.702 1.782.702s1.314-.234 1.782-.702c.468-.468.702-1.05.702-1.746s-.234-1.278-.702-1.746c-.468-.456-1.062-.684-1.782-.684s-1.314.228-1.782.684zM1 20.084h13.14v2.322H1v-2.322zm0 4.447h13.14v2.322H1V24.53zm1.116 12.115c-.912-.924-1.368-2.052-1.368-3.384 0-1.332.456-2.46 1.368-3.384.924-.912 2.052-1.368 3.384-1.368 1.332 0 2.454.456 3.366 1.368.924.924 1.386 2.052 1.386 3.384 0 1.332-.462 2.46-1.386 3.384-.912.924-2.034 1.386-3.366 1.386-1.332 0-2.46-.462-3.384-1.386zm1.602-5.13c-.468.468-.702 1.05-.702 1.746s.234 1.278.702 1.746c.468.468 1.062.702 1.782.702s1.314-.234 1.782-.702c.468-.468.702-1.05.702-1.746s-.234-1.278-.702-1.746c-.468-.456-1.062-.684-1.782-.684s-1.314.228-1.782.684zM10 49.448v2.466l-9-2.862v-2.214l5.454-1.656L1 43.526v-2.214l9-2.862v2.466l-5.526 1.53L10 44.084v2.196l-5.544 1.638L10 49.448zm0 14.157v2.322H1v-2.322h1.008c-.84-.563-1.26-1.457-1.26-2.681 0-.984.33-1.8.99-2.449.66-.636 1.572-.953 2.736-.953H10v2.322H4.762c-.6 0-1.062.161-1.386.486-.312.324-.468.756-.468 1.296 0 .6.186 1.08.558 1.44.372.36.93.54 1.674.54H10zm-2.556 6.52c-.24 0-.438.157-.594.469a7.79 7.79 0 00-.396 1.17c-.108.456-.252.912-.432 1.368-.168.456-.456.84-.864 1.152-.408.324-.918.486-1.53.486-.924 0-1.638-.348-2.142-1.044-.492-.684-.738-1.542-.738-2.574 0-1.848.714-3.108 2.142-3.78l1.134 2.016c-.78.264-1.17.852-1.17 1.764 0 .828.258 1.242.774 1.242.24 0 .432-.162.576-.486a6.03 6.03 0 00.414-1.152c.12-.456.27-.912.45-1.368.18-.456.462-.846.846-1.17.396-.312.888-.468 1.476-.468.888 0 1.584.324 2.088.972.516.66.774 1.476.774 2.448 0 .732-.168 1.398-.504 1.998a3.556 3.556 0 01-1.404 1.422l-1.08-1.98c.612-.288.918-.768.918-1.44 0-.3-.066-.552-.198-.756a.622.622 0 00-.54-.288z" fill="#fff"/></svg>